<?xml version="1.0" encoding="us-ascii" standalone="no"?><svg xmlns="http://www.w3.org/2000/svg" xmlns:xlink="http://www.w3.org/1999/xlink" contentStyleType="text/css" height="570px" preserveAspectRatio="none" style="width:1083px;height:570px;background:#FFFFFF;" version="1.1" viewBox="0 0 1083 570" width="1083px" zoomAndPan="magnify"><defs/><g><line style="stroke:#181818;stroke-width:0.5;stroke-dasharray:5.0,5.0;" x1="29" x2="29" y1="84.2295" y2="486.501"/><line style="stroke:#181818;stroke-width:0.5;stroke-dasharray:5.0,5.0;" x1="150" x2="150" y1="84.2295" y2="486.501"/><line style="stroke:#181818;stroke-width:0.5;stroke-dasharray:5.0,5.0;" x1="457" x2="457" y1="84.2295" y2="486.501"/><line style="stroke:#181818;stroke-width:0.5;stroke-dasharray:5.0,5.0;" x1="673.5" x2="673.5" y1="84.2295" y2="486.501"/><line style="stroke:#181818;stroke-width:0.5;stroke-dasharray:5.0,5.0;" x1="967" x2="967" y1="84.2295" y2="486.501"/><line style="stroke:#181818;stroke-width:0.5;stroke-dasharray:5.0,5.0;" x1="1048" x2="1048" y1="84.2295" y2="486.501"/><text fill="#000000" font-family="sans-serif" font-size="14" lengthAdjust="spacing" textLength="42" x="5" y="81.1533">Author</text><ellipse cx="29" cy="13.5" fill="#E2E2F0" rx="8" ry="8" style="stroke:#181818;stroke-width:0.5;"/><path d="M29,21.5 L29,48.5 M16,29.5 L42,29.5 M29,48.5 L16,63.5 M29,48.5 L42,63.5 " fill="none" style="stroke:#181818;stroke-width:0.5;"/><text fill="#000000" font-family="sans-serif" font-size="14" lengthAdjust="spacing" textLength="42" x="5" y="501.6543">Author</text><ellipse cx="29" cy="513.2305" fill="#E2E2F0" rx="8" ry="8" style="stroke:#181818;stroke-width:0.5;"/><path d="M29,521.2305 L29,548.2305 M16,529.2305 L42,529.2305 M29,548.2305 L16,563.2305 M29,548.2305 L42,563.2305 " fill="none" style="stroke:#181818;stroke-width:0.5;"/><rect fill="#E2E2F0" height="33.2295" rx="2.5" ry="2.5" style="stroke:#181818;stroke-width:0.5;" width="64" x="118" y="50"/><text fill="#000000" font-family="sans-serif" font-size="14" lengthAdjust="spacing" textLength="50" x="125" y="73.1533">BoardUI</text><rect fill="#E2E2F0" height="33.2295" rx="2.5" ry="2.5" style="stroke:#181818;stroke-width:0.5;" width="64" x="118" y="485.501"/><text fill="#000000" font-family="sans-serif" font-size="14" lengthAdjust="spacing" textLength="50" x="125" y="508.6543">BoardUI</text><rect fill="#E2E2F0" height="52.459" rx="2.5" ry="2.5" style="stroke:#181818;stroke-width:0.5;" width="156" x="379" y="30.7705"/><text fill="#000000" font-family="sans-serif" font-size="14" lengthAdjust="spacing" textLength="142" x="386" y="53.9238">CompatibilityController</text><text fill="#000000" font-family="sans-serif" font-size="14" lengthAdjust="spacing" textLength="69" x="422.5" y="73.1533">(Flask API)</text><rect fill="#E2E2F0" height="52.459" rx="2.5" ry="2.5" style="stroke:#181818;stroke-width:0.5;" width="156" x="379" y="485.501"/><text fill="#000000" font-family="sans-serif" font-size="14" lengthAdjust="spacing" textLength="142" x="386" y="508.6543">CompatibilityController</text><text fill="#000000" font-family="sans-serif" font-size="14" lengthAdjust="spacing" textLength="69" x="422.5" y="527.8838">(Flask API)</text><rect fill="#E2E2F0" height="33.2295" rx="2.5" ry="2.5" style="stroke:#181818;stroke-width:0.5;" width="141" x="603.5" y="50"/><text fill="#000000" font-family="sans-serif" font-size="14" lengthAdjust="spacing" textLength="127" x="610.5" y="73.1533">CompatibilityService</text><rect fill="#E2E2F0" height="33.2295" rx="2.5" ry="2.5" style="stroke:#181818;stroke-width:0.5;" width="141" x="603.5" y="485.501"/><text fill="#000000" font-family="sans-serif" font-size="14" lengthAdjust="spacing" textLength="127" x="610.5" y="508.6543">CompatibilityService</text><rect fill="#E2E2F0" height="33.2295" rx="2.5" ry="2.5" style="stroke:#181818;stroke-width:0.5;" width="106" x="914" y="50"/><text fill="#000000" font-family="sans-serif" font-size="14" lengthAdjust="spacing" textLength="92" x="921" y="73.1533">SajuCalculator</text><rect fill="#E2E2F0" height="33.2295" rx="2.5" ry="2.5" style="stroke:#181818;stroke-width:0.5;" width="106" x="914" y="485.501"/><text fill="#000000" font-family="sans-serif" font-size="14" lengthAdjust="spacing" textLength="92" x="921" y="508.6543">SajuCalculator</text><text fill="#000000" font-family="sans-serif" font-size="14" lengthAdjust="spacing" textLength="19" x="1035.5" y="81.1533">DB</text><path d="M1030,29 C1030,19 1048,19 1048,19 C1048,19 1066,19 1066,29 L1066,55 C1066,65 1048,65 1048,65 C1048,65 1030,65 1030,55 L1030,29 " fill="#E2E2F0" style="stroke:#181818;stroke-width:1.5;"/><path d="M1030,29 C1030,39 1048,39 1048,39 C1048,39 1066,39 1066,29 " fill="none" style="stroke:#181818;stroke-width:1.5;"/><text fill="#000000" font-family="sans-serif" font-size="14" lengthAdjust="spacing" textLength="19" x="1035.5" y="501.6543">DB</text><path d="M1030,514.7305 C1030,504.7305 1048,504.7305 1048,504.7305 C1048,504.7305 1066,504.7305 1066,514.7305 L1066,540.7305 C1066,550.7305 1048,550.7305 1048,550.7305 C1048,550.7305 1030,550.7305 1030,540.7305 L1030,514.7305 " fill="#E2E2F0" style="stroke:#181818;stroke-width:1.5;"/><path d="M1030,514.7305 C1030,524.7305 1048,524.7305 1048,524.7305 C1048,524.7305 1066,524.7305 1066,514.7305 " fill="none" style="stroke:#181818;stroke-width:1.5;"/><polygon fill="#181818" points="138,114.0854,148,118.0854,138,122.0854,142,118.0854" style="stroke:#181818;stroke-width:1.0;"/><line style="stroke:#181818;stroke-width:1.0;" x1="29" x2="144" y1="118.0854" y2="118.0854"/><text fill="#000000" font-family="sans-serif" font-size="13" font-weight="bold" lengthAdjust="spacing" textLength="7" x="36" y="113.229">1</text><text fill="#000000" font-family="sans-serif" font-size="13" lengthAdjust="spacing" textLength="86" x="47" y="113.229">&#50836;&#52397; &#50508;&#47548; &#54869;&#51064;</text><polygon fill="#181818" points="445,145.9414,455,149.9414,445,153.9414,449,149.9414" style="stroke:#181818;stroke-width:1.0;"/><line style="stroke:#181818;stroke-width:1.0;" x1="150" x2="451" y1="149.9414" y2="149.9414"/><text fill="#000000" font-family="sans-serif" font-size="13" font-weight="bold" lengthAdjust="spacing" textLength="7" x="157" y="145.085">2</text><text fill="#000000" font-family="sans-serif" font-size="13" lengthAdjust="spacing" textLength="272" x="168" y="145.085">POST /api/v1/compatibility/requests/{id}/accept</text><polygon fill="#181818" points="662,177.7974,672,181.7974,662,185.7974,666,181.7974" style="stroke:#181818;stroke-width:1.0;"/><line style="stroke:#181818;stroke-width:1.0;" x1="457" x2="668" y1="181.7974" y2="181.7974"/><text fill="#000000" font-family="sans-serif" font-size="13" font-weight="bold" lengthAdjust="spacing" textLength="7" x="464" y="176.9409">3</text><text fill="#000000" font-family="sans-serif" font-size="13" lengthAdjust="spacing" textLength="182" x="475" y="176.9409">accept_request(id, target_id=A)</text><polygon fill="#181818" points="1036,209.6533,1046,213.6533,1036,217.6533,1040,213.6533" style="stroke:#181818;stroke-width:1.0;"/><line style="stroke:#181818;stroke-width:1.0;" x1="674" x2="1042" y1="213.6533" y2="213.6533"/><text fill="#000000" font-family="sans-serif" font-size="13" font-weight="bold" lengthAdjust="spacing" textLength="7" x="681" y="208.7969">4</text><text fill="#000000" font-family="sans-serif" font-size="13" lengthAdjust="spacing" textLength="211" x="692" y="208.7969">SELECT requester_saju, target_saju</text><polygon fill="#181818" points="685,241.5093,675,245.5093,685,249.5093,681,245.5093" style="stroke:#181818;stroke-width:1.0;"/><line style="stroke:#181818;stroke-width:1.0;stroke-dasharray:2.0,2.0;" x1="679" x2="1047" y1="245.5093" y2="245.5093"/><text fill="#000000" font-family="sans-serif" font-size="13" font-weight="bold" lengthAdjust="spacing" textLength="7" x="691" y="240.6528">5</text><text fill="#000000" font-family="sans-serif" font-size="13" lengthAdjust="spacing" textLength="118" x="702" y="240.6528">sajuA, sajuB, g1, g2</text><polygon fill="#181818" points="955,273.3652,965,277.3652,955,281.3652,959,277.3652" style="stroke:#181818;stroke-width:1.0;"/><line style="stroke:#181818;stroke-width:1.0;" x1="674" x2="961" y1="277.3652" y2="277.3652"/><text fill="#000000" font-family="sans-serif" font-size="13" font-weight="bold" lengthAdjust="spacing" textLength="7" x="681" y="272.5088">6</text><text fill="#000000" font-family="sans-serif" font-size="13" lengthAdjust="spacing" textLength="258" x="692" y="272.5088">calculate_compatibility(sajuA, sajuB, g1, g2)</text><polygon fill="#181818" points="685,305.2212,675,309.2212,685,313.2212,681,309.2212" style="stroke:#181818;stroke-width:1.0;"/><line style="stroke:#181818;stroke-width:1.0;stroke-dasharray:2.0,2.0;" x1="679" x2="966" y1="309.2212" y2="309.2212"/><text fill="#000000" font-family="sans-serif" font-size="13" font-weight="bold" lengthAdjust="spacing" textLength="7" x="691" y="304.3647">7</text><text fill="#000000" font-family="sans-serif" font-size="13" lengthAdjust="spacing" textLength="124" x="702" y="304.3647">{original, final, stress}</text><polygon fill="#181818" points="1036,337.0771,1046,341.0771,1036,345.0771,1040,341.0771" style="stroke:#181818;stroke-width:1.0;"/><line style="stroke:#181818;stroke-width:1.0;" x1="674" x2="1042" y1="341.0771" y2="341.0771"/><text fill="#000000" font-family="sans-serif" font-size="13" font-weight="bold" lengthAdjust="spacing" textLength="7" x="681" y="336.2207">8</text><text fill="#000000" font-family="sans-serif" font-size="13" lengthAdjust="spacing" textLength="307" x="692" y="336.2207">UPDATE request SET status='accepted', result fields</text><polygon fill="#181818" points="685,368.9331,675,372.9331,685,376.9331,681,372.9331" style="stroke:#181818;stroke-width:1.0;"/><line style="stroke:#181818;stroke-width:1.0;stroke-dasharray:2.0,2.0;" x1="679" x2="1047" y1="372.9331" y2="372.9331"/><text fill="#000000" font-family="sans-serif" font-size="13" font-weight="bold" lengthAdjust="spacing" textLength="7" x="691" y="368.0767">9</text><text fill="#000000" font-family="sans-serif" font-size="13" lengthAdjust="spacing" textLength="14" x="702" y="368.0767">ok</text><polygon fill="#181818" points="468,400.7891,458,404.7891,468,408.7891,464,404.7891" style="stroke:#181818;stroke-width:1.0;"/><line style="stroke:#181818;stroke-width:1.0;stroke-dasharray:2.0,2.0;" x1="462" x2="673" y1="404.7891" y2="404.7891"/><text fill="#000000" font-family="sans-serif" font-size="13" font-weight="bold" lengthAdjust="spacing" textLength="14" x="474" y="399.9326">10</text><text fill="#000000" font-family="sans-serif" font-size="13" lengthAdjust="spacing" textLength="164" x="492" y="399.9326">{status, compatibility_result}</text><polygon fill="#181818" points="161,432.645,151,436.645,161,440.645,157,436.645" style="stroke:#181818;stroke-width:1.0;"/><line style="stroke:#181818;stroke-width:1.0;stroke-dasharray:2.0,2.0;" x1="155" x2="456" y1="436.645" y2="436.645"/><text fill="#000000" font-family="sans-serif" font-size="13" font-weight="bold" lengthAdjust="spacing" textLength="14" x="167" y="431.7886">11</text><text fill="#000000" font-family="sans-serif" font-size="13" lengthAdjust="spacing" textLength="44" x="185" y="431.7886">200 OK</text><polygon fill="#181818" points="40,464.501,30,468.501,40,472.501,36,468.501" style="stroke:#181818;stroke-width:1.0;"/><line style="stroke:#181818;stroke-width:1.0;stroke-dasharray:2.0,2.0;" x1="34" x2="149" y1="468.501" y2="468.501"/><text fill="#000000" font-family="sans-serif" font-size="13" font-weight="bold" lengthAdjust="spacing" textLength="14" x="46" y="463.6445">12</text><text fill="#000000" font-family="sans-serif" font-size="13" lengthAdjust="spacing" textLength="56" x="64" y="463.6445">&#44208;&#44284; &#54364;&#49884;</text><!--SRC=[VP7DIWCn58NtUOgBcxOmCjfbGM4chI0ABQJkXE5s9jROE3Cc6K5Adq0tWYwKkdKdIDsuy8dg-0vcVfGMn4Mu9FUSa-ycc9aapiv7N162eKaKU9avjGKrU2H5PKGeKemD-0cgw6Y_QFXhZGsQdATen4X8OQve4XkLICdLSTpSawWdu0tsMnk5Zz9_Z8ohIn7oIiZMXGpFCeeop2HQn5B2A8dGu0WrXwvFY0URk-1t87-yonSlaD_VV3v_mDV3VVxqJloYIMa71dqs11TJuLvkk-7gzQxY5ndNHhjJ4SrS34EU6a9fwMGTg0w2MjKKaGC6rPYRG4GxNejGLYYxbe3r3djq2BMIgq1R-bzriI5T2rJd5dlFAOllm7ZRhdOTnYnmM4_DWpNQvb-s5c7qDtUQA34MCKe7JggYZU9QprP8ZmPTRzZx8RNWGoj2a-cTHZKkZngERUjC6fl2PQHNqPD9cLK_xRIoEh066bJkMVcIrG-rjxQWVq2g7Ay3oyNhyir-rUqylvwJRm00]--></g></svg>