<?xml version="1.0" encoding="us-ascii" standalone="no"?><svg xmlns="http://www.w3.org/2000/svg" xmlns:xlink="http://www.w3.org/1999/xlink" contentStyleType="text/css" height="685px" preserveAspectRatio="none" style="width:1237px;height:685px;background:#FFFFFF;" version="1.1" viewBox="0 0 1237 685" width="1237px" zoomAndPan="magnify"><defs/><g><rect fill="none" height="355.6333" style="stroke:#000000;stroke-width:1.5;" width="1220.5" x="10" y="228.6533"/><line style="stroke:#181818;stroke-width:0.5;stroke-dasharray:5.0,5.0;" x1="37" x2="37" y1="84.2295" y2="601.2866"/><line style="stroke:#181818;stroke-width:0.5;stroke-dasharray:5.0,5.0;" x1="224.5" x2="224.5" y1="84.2295" y2="601.2866"/><line style="stroke:#181818;stroke-width:0.5;stroke-dasharray:5.0,5.0;" x1="578.5" x2="578.5" y1="84.2295" y2="601.2866"/><line style="stroke:#181818;stroke-width:0.5;stroke-dasharray:5.0,5.0;" x1="886" x2="886" y1="84.2295" y2="601.2866"/><line style="stroke:#181818;stroke-width:0.5;stroke-dasharray:5.0,5.0;" x1="1202.5" x2="1202.5" y1="84.2295" y2="601.2866"/><text fill="#000000" font-family="sans-serif" font-size="14" lengthAdjust="spacing" textLength="29" x="20" y="81.1533">User</text><ellipse cx="37.5" cy="13.5" fill="#E2E2F0" rx="8" ry="8" style="stroke:#181818;stroke-width:0.5;"/><path d="M37.5,21.5 L37.5,48.5 M24.5,29.5 L50.5,29.5 M37.5,48.5 L24.5,63.5 M37.5,48.5 L50.5,63.5 " fill="none" style="stroke:#181818;stroke-width:0.5;"/><text fill="#000000" font-family="sans-serif" font-size="14" lengthAdjust="spacing" textLength="29" x="20" y="616.4399">User</text><ellipse cx="37.5" cy="628.0161" fill="#E2E2F0" rx="8" ry="8" style="stroke:#181818;stroke-width:0.5;"/><path d="M37.5,636.0161 L37.5,663.0161 M24.5,644.0161 L50.5,644.0161 M37.5,663.0161 L24.5,678.0161 M37.5,663.0161 L50.5,678.0161 " fill="none" style="stroke:#181818;stroke-width:0.5;"/><rect fill="#E2E2F0" height="33.2295" rx="2.5" ry="2.5" style="stroke:#181818;stroke-width:0.5;" width="64" x="192.5" y="50"/><text fill="#000000" font-family="sans-serif" font-size="14" lengthAdjust="spacing" textLength="50" x="199.5" y="73.1533">BoardUI</text><rect fill="#E2E2F0" height="33.2295" rx="2.5" ry="2.5" style="stroke:#181818;stroke-width:0.5;" width="64" x="192.5" y="600.2866"/><text fill="#000000" font-family="sans-serif" font-size="14" lengthAdjust="spacing" textLength="50" x="199.5" y="623.4399">BoardUI</text><rect fill="#E2E2F0" height="52.459" rx="2.5" ry="2.5" style="stroke:#181818;stroke-width:0.5;" width="156" x="500.5" y="30.7705"/><text fill="#000000" font-family="sans-serif" font-size="14" lengthAdjust="spacing" textLength="142" x="507.5" y="53.9238">CompatibilityController</text><text fill="#000000" font-family="sans-serif" font-size="14" lengthAdjust="spacing" textLength="69" x="544" y="73.1533">(Flask API)</text><rect fill="#E2E2F0" height="52.459" rx="2.5" ry="2.5" style="stroke:#181818;stroke-width:0.5;" width="156" x="500.5" y="600.2866"/><text fill="#000000" font-family="sans-serif" font-size="14" lengthAdjust="spacing" textLength="142" x="507.5" y="623.4399">CompatibilityController</text><text fill="#000000" font-family="sans-serif" font-size="14" lengthAdjust="spacing" textLength="69" x="544" y="642.6694">(Flask API)</text><rect fill="#E2E2F0" height="33.2295" rx="2.5" ry="2.5" style="stroke:#181818;stroke-width:0.5;" width="141" x="816" y="50"/><text fill="#000000" font-family="sans-serif" font-size="14" lengthAdjust="spacing" textLength="127" x="823" y="73.1533">CompatibilityService</text><rect fill="#E2E2F0" height="33.2295" rx="2.5" ry="2.5" style="stroke:#181818;stroke-width:0.5;" width="141" x="816" y="600.2866"/><text fill="#000000" font-family="sans-serif" font-size="14" lengthAdjust="spacing" textLength="127" x="823" y="623.4399">CompatibilityService</text><text fill="#000000" font-family="sans-serif" font-size="14" lengthAdjust="spacing" textLength="19" x="1190" y="81.1533">DB</text><path d="M1184.5,29 C1184.5,19 1202.5,19 1202.5,19 C1202.5,19 1220.5,19 1220.5,29 L1220.5,55 C1220.5,65 1202.5,65 1202.5,65 C1202.5,65 1184.5,65 1184.5,55 L1184.5,29 " fill="#E2E2F0" style="stroke:#181818;stroke-width:1.5;"/><path d="M1184.5,29 C1184.5,39 1202.5,39 1202.5,39 C1202.5,39 1220.5,39 1220.5,29 " fill="none" style="stroke:#181818;stroke-width:1.5;"/><text fill="#000000" font-family="sans-serif" font-size="14" lengthAdjust="spacing" textLength="19" x="1190" y="616.4399">DB</text><path d="M1184.5,629.5161 C1184.5,619.5161 1202.5,619.5161 1202.5,619.5161 C1202.5,619.5161 1220.5,619.5161 1220.5,629.5161 L1220.5,655.5161 C1220.5,665.5161 1202.5,665.5161 1202.5,665.5161 C1202.5,665.5161 1184.5,665.5161 1184.5,655.5161 L1184.5,629.5161 " fill="#E2E2F0" style="stroke:#181818;stroke-width:1.5;"/><path d="M1184.5,629.5161 C1184.5,639.5161 1202.5,639.5161 1202.5,639.5161 C1202.5,639.5161 1220.5,639.5161 1220.5,629.5161 " fill="none" style="stroke:#181818;stroke-width:1.5;"/><polygon fill="#181818" points="212.5,114.0854,222.5,118.0854,212.5,122.0854,216.5,118.0854" style="stroke:#181818;stroke-width:1.0;"/><line style="stroke:#181818;stroke-width:1.0;" x1="37.5" x2="218.5" y1="118.0854" y2="118.0854"/><text fill="#000000" font-family="sans-serif" font-size="13" font-weight="bold" lengthAdjust="spacing" textLength="7" x="44.5" y="113.229">1</text><text fill="#000000" font-family="sans-serif" font-size="13" lengthAdjust="spacing" textLength="152" x="55.5" y="113.229">"&#51089;&#49457;&#51088;&#50752; &#44417;&#54633; &#50836;&#52397;" &#53364;&#47533;</text><polygon fill="#181818" points="566.5,145.9414,576.5,149.9414,566.5,153.9414,570.5,149.9414" style="stroke:#181818;stroke-width:1.0;"/><line style="stroke:#181818;stroke-width:1.0;" x1="224.5" x2="572.5" y1="149.9414" y2="149.9414"/><text fill="#000000" font-family="sans-serif" font-size="13" font-weight="bold" lengthAdjust="spacing" textLength="7" x="231.5" y="145.085">2</text><text fill="#000000" font-family="sans-serif" font-size="13" lengthAdjust="spacing" textLength="319" x="242.5" y="145.085">POST /api/v1/compatibility/requests {target_id, post_id}</text><polygon fill="#181818" points="874.5,177.7974,884.5,181.7974,874.5,185.7974,878.5,181.7974" style="stroke:#181818;stroke-width:1.0;"/><line style="stroke:#181818;stroke-width:1.0;" x1="578.5" x2="880.5" y1="181.7974" y2="181.7974"/><text fill="#000000" font-family="sans-serif" font-size="13" font-weight="bold" lengthAdjust="spacing" textLength="7" x="585.5" y="176.9409">3</text><text fill="#000000" font-family="sans-serif" font-size="13" lengthAdjust="spacing" textLength="273" x="596.5" y="176.9409">create_request(requester_id, target_id, post_id)</text><polygon fill="#181818" points="1190.5,209.6533,1200.5,213.6533,1190.5,217.6533,1194.5,213.6533" style="stroke:#181818;stroke-width:1.0;"/><line style="stroke:#181818;stroke-width:1.0;" x1="886.5" x2="1196.5" y1="213.6533" y2="213.6533"/><text fill="#000000" font-family="sans-serif" font-size="13" font-weight="bold" lengthAdjust="spacing" textLength="7" x="893.5" y="208.7969">4</text><text fill="#000000" font-family="sans-serif" font-size="13" lengthAdjust="spacing" textLength="281" x="904.5" y="208.7969">SELECT pending WHERE requester_id,target_id</text><path d="M10,228.6533 L71,228.6533 L71,238.5093 L61,248.5093 L10,248.5093 L10,228.6533 " fill="#EEEEEE" style="stroke:#000000;stroke-width:1.5;"/><rect fill="none" height="355.6333" style="stroke:#000000;stroke-width:1.5;" width="1220.5" x="10" y="228.6533"/><text fill="#000000" font-family="sans-serif" font-size="13" font-weight="bold" lengthAdjust="spacing" textLength="16" x="25" y="244.6528">alt</text><text fill="#000000" font-family="sans-serif" font-size="11" font-weight="bold" lengthAdjust="spacing" textLength="56.375" x="86" y="243.3452">[&#51473;&#48373; &#51316;&#51116;]</text><polygon fill="#181818" points="897.5,268.4741,887.5,272.4741,897.5,276.4741,893.5,272.4741" style="stroke:#181818;stroke-width:1.0;"/><line style="stroke:#181818;stroke-width:1.0;stroke-dasharray:2.0,2.0;" x1="891.5" x2="1201.5" y1="272.4741" y2="272.4741"/><text fill="#000000" font-family="sans-serif" font-size="13" font-weight="bold" lengthAdjust="spacing" textLength="7" x="903.5" y="267.6177">5</text><text fill="#000000" font-family="sans-serif" font-size="13" lengthAdjust="spacing" textLength="45" x="914.5" y="267.6177">existing</text><polygon fill="#181818" points="589.5,300.3301,579.5,304.3301,589.5,308.3301,585.5,304.3301" style="stroke:#181818;stroke-width:1.0;"/><line style="stroke:#181818;stroke-width:1.0;stroke-dasharray:2.0,2.0;" x1="583.5" x2="885.5" y1="304.3301" y2="304.3301"/><text fill="#000000" font-family="sans-serif" font-size="13" font-weight="bold" lengthAdjust="spacing" textLength="7" x="595.5" y="299.4736">6</text><text fill="#000000" font-family="sans-serif" font-size="13" lengthAdjust="spacing" textLength="68" x="606.5" y="299.4736">409 Conflict</text><polygon fill="#181818" points="235.5,332.186,225.5,336.186,235.5,340.186,231.5,336.186" style="stroke:#181818;stroke-width:1.0;"/><line style="stroke:#181818;stroke-width:1.0;stroke-dasharray:2.0,2.0;" x1="229.5" x2="577.5" y1="336.186" y2="336.186"/><text fill="#000000" font-family="sans-serif" font-size="13" font-weight="bold" lengthAdjust="spacing" textLength="7" x="241.5" y="331.3296">7</text><text fill="#000000" font-family="sans-serif" font-size="13" lengthAdjust="spacing" textLength="21" x="252.5" y="331.3296">409</text><polygon fill="#181818" points="48.5,364.042,38.5,368.042,48.5,372.042,44.5,368.042" style="stroke:#181818;stroke-width:1.0;"/><line style="stroke:#181818;stroke-width:1.0;stroke-dasharray:2.0,2.0;" x1="42.5" x2="223.5" y1="368.042" y2="368.042"/><text fill="#000000" font-family="sans-serif" font-size="13" font-weight="bold" lengthAdjust="spacing" textLength="7" x="54.5" y="363.1855">8</text><text fill="#000000" font-family="sans-serif" font-size="13" lengthAdjust="spacing" textLength="99" x="65.5" y="363.1855">&#51060;&#48120; &#50836;&#52397;&#46120; &#50504;&#45236;</text><line style="stroke:#000000;stroke-width:1.0;stroke-dasharray:2.0,2.0;" x1="10" x2="1230.5" y1="377.042" y2="377.042"/><text fill="#000000" font-family="sans-serif" font-size="11" font-weight="bold" lengthAdjust="spacing" textLength="30.6875" x="15" y="389.7339">[&#50630;&#51020;]</text><polygon fill="#181818" points="897.5,413.0068,887.5,417.0068,897.5,421.0068,893.5,417.0068" style="stroke:#181818;stroke-width:1.0;"/><line style="stroke:#181818;stroke-width:1.0;stroke-dasharray:2.0,2.0;" x1="891.5" x2="1201.5" y1="417.0068" y2="417.0068"/><text fill="#000000" font-family="sans-serif" font-size="13" font-weight="bold" lengthAdjust="spacing" textLength="7" x="903.5" y="412.1504">9</text><text fill="#000000" font-family="sans-serif" font-size="13" lengthAdjust="spacing" textLength="28" x="914.5" y="412.1504">none</text><polygon fill="#181818" points="1190.5,444.8628,1200.5,448.8628,1190.5,452.8628,1194.5,448.8628" style="stroke:#181818;stroke-width:1.0;"/><line style="stroke:#181818;stroke-width:1.0;" x1="886.5" x2="1196.5" y1="448.8628" y2="448.8628"/><text fill="#000000" font-family="sans-serif" font-size="13" font-weight="bold" lengthAdjust="spacing" textLength="14" x="893.5" y="444.0063">10</text><text fill="#000000" font-family="sans-serif" font-size="13" lengthAdjust="spacing" textLength="274" x="911.5" y="444.0063">INSERT compatibility_request(status='pending')</text><polygon fill="#181818" points="897.5,476.7188,887.5,480.7188,897.5,484.7188,893.5,480.7188" style="stroke:#181818;stroke-width:1.0;"/><line style="stroke:#181818;stroke-width:1.0;stroke-dasharray:2.0,2.0;" x1="891.5" x2="1201.5" y1="480.7188" y2="480.7188"/><text fill="#000000" font-family="sans-serif" font-size="13" font-weight="bold" lengthAdjust="spacing" textLength="14" x="903.5" y="475.8623">11</text><text fill="#000000" font-family="sans-serif" font-size="13" lengthAdjust="spacing" textLength="14" x="921.5" y="475.8623">ok</text><polygon fill="#181818" points="589.5,508.5747,579.5,512.5747,589.5,516.5747,585.5,512.5747" style="stroke:#181818;stroke-width:1.0;"/><line style="stroke:#181818;stroke-width:1.0;stroke-dasharray:2.0,2.0;" x1="583.5" x2="885.5" y1="512.5747" y2="512.5747"/><text fill="#000000" font-family="sans-serif" font-size="13" font-weight="bold" lengthAdjust="spacing" textLength="14" x="595.5" y="507.7183">12</text><text fill="#000000" font-family="sans-serif" font-size="13" lengthAdjust="spacing" textLength="137" x="613.5" y="507.7183">201 {request_id, status}</text><polygon fill="#181818" points="235.5,540.4307,225.5,544.4307,235.5,548.4307,231.5,544.4307" style="stroke:#181818;stroke-width:1.0;"/><line style="stroke:#181818;stroke-width:1.0;stroke-dasharray:2.0,2.0;" x1="229.5" x2="577.5" y1="544.4307" y2="544.4307"/><text fill="#000000" font-family="sans-serif" font-size="13" font-weight="bold" lengthAdjust="spacing" textLength="14" x="241.5" y="539.5742">13</text><text fill="#000000" font-family="sans-serif" font-size="13" lengthAdjust="spacing" textLength="70" x="259.5" y="539.5742">201 Created</text><polygon fill="#181818" points="48.5,572.2866,38.5,576.2866,48.5,580.2866,44.5,576.2866" style="stroke:#181818;stroke-width:1.0;"/><line style="stroke:#181818;stroke-width:1.0;stroke-dasharray:2.0,2.0;" x1="42.5" x2="223.5" y1="576.2866" y2="576.2866"/><text fill="#000000" font-family="sans-serif" font-size="13" font-weight="bold" lengthAdjust="spacing" textLength="14" x="54.5" y="571.4302">14</text><text fill="#000000" font-family="sans-serif" font-size="13" lengthAdjust="spacing" textLength="56" x="72.5" y="571.4302">&#50836;&#52397; &#50756;&#47308;</text><!--SRC=[VL3BQXH15DtNLrncammO9X4t3XYmAoqEY8Rf2Mu2uKxtDHJfTBLLTu8I0aP2S9550WQ9a05HHC4WwYX-artv1wiV19k0gtgSnxtdu8HrDjaUan42OzO6rYmPG0j3miJ_vcXOnIh7Z27GQ9ArGOa6BQ0ZzNQEhCOgLVnSweoDJbCowzdylHJj5jnT7NGxfKxA_mWZCZigffeOYGGPnsW9LW8XwdLWOHc2FdJSzCGTV7FJOtVs0lxyshyy_GpkxMlt_Q83b_kpukE524gkb7rOVHIDe8UvwkqizU9_v_KCFPsGPGkxZ6QJU4CbDo3Njhpi2IahYwWFiI5ascZeyyr9fk9VbtQ5Z4hfYbyr2X-4SWGvPOdADk7n_N0OGilWIYymPN0VJeeVFy6zcxdf5m7U0nQQBUYPiknD_6_ftyIxjNWRVEDFKXLpYSWA2Ih0lsjvtLuVtFci-FgxgQeu_WJkz5NnSYOezJMxDuVk_AWzCzCPDVFgF8E7KJWSGQl7gs8i8q_idRacxLotRQQtsglVN5o2tKPRzLVhzrenIfAi-a-knwboW3ixADuV2JzK_0K0]--></g></svg>